<svg xmlns="http://www.w3.org/2000/svg" xmlns:xlink="http://www.w3.org/1999/xlink" width="555" zoomAndPan="magnify" viewBox="0 0 416.25 104.999996" height="140" preserveAspectRatio="xMidYMid meet" version="1.0"><defs><g/><clipPath id="id1"><path d="M 0 0.09375 L 415.5 0.09375 L 415.5 104.90625 L 0 104.90625 Z M 0 0.09375 " clip-rule="nonzero"/></clipPath><clipPath id="id2"><path d="M 15.070312 4.71875 L 95.925781 4.71875 L 95.925781 98.300781 L 15.070312 98.300781 Z M 15.070312 4.71875 " clip-rule="nonzero"/></clipPath></defs><g clip-path="url(#id1)"><path fill="#ffffff" d="M 0 0.09375 L 416.25 0.09375 L 416.25 112.390625 L 0 112.390625 Z M 0 0.09375 " fill-opacity="1" fill-rule="nonzero"/><path fill="#ffffff" d="M 0 0.09375 L 415.5 0.09375 L 415.5 104.90625 L 0 104.90625 Z M 0 0.09375 " fill-opacity="1" fill-rule="nonzero"/><path fill="#ffffff" d="M 0 0.09375 L 415.5 0.09375 L 415.5 104.90625 L 0 104.90625 Z M 0 0.09375 " fill-opacity="1" fill-rule="nonzero"/><path fill="#ffffff" d="M 0 0.09375 L 415.5 0.09375 L 415.5 104.90625 L 0 104.90625 Z M 0 0.09375 " fill-opacity="1" fill-rule="nonzero"/></g><g fill="#300452" fill-opacity="1"><g transform="translate(103.062138, 86.141095)"><g><path d="M 28.5 -9.171875 C 29.894531 -9.171875 30.90625 -9 31.53125 -8.65625 C 32.15625 -8.320312 32.582031 -7.832031 32.8125 -7.1875 C 33.050781 -6.539062 33.171875 -5.71875 33.171875 -4.71875 C 33.171875 -3.71875 33.078125 -2.910156 32.890625 -2.296875 C 32.710938 -1.691406 32.5 -1.226562 32.25 -0.90625 C 32 -0.582031 31.625 -0.351562 31.125 -0.21875 C 30.550781 0 29.640625 0.109375 28.390625 0.109375 L 6.0625 0.109375 C 5.238281 0.109375 4.453125 -0.101562 3.703125 -0.53125 C 2.128906 -1.425781 1.34375 -2.84375 1.34375 -4.78125 C 1.34375 -5.707031 1.554688 -6.457031 1.984375 -7.03125 L 18.625 -30.0625 L 6.28125 -30.0625 C 5.414062 -30.0625 4.773438 -30.085938 4.359375 -30.140625 C 3.953125 -30.191406 3.460938 -30.34375 2.890625 -30.59375 C 1.859375 -31.09375 1.34375 -32.4375 1.34375 -34.625 C 1.34375 -36.90625 1.828125 -38.300781 2.796875 -38.8125 C 3.328125 -39.09375 3.796875 -39.257812 4.203125 -39.3125 C 4.617188 -39.363281 5.257812 -39.390625 6.125 -39.390625 L 27.6875 -39.390625 C 28.507812 -39.390625 29.296875 -39.175781 30.046875 -38.75 C 30.804688 -38.320312 31.390625 -37.75 31.796875 -37.03125 C 32.210938 -36.3125 32.421875 -35.46875 32.421875 -34.5 C 32.421875 -33.539062 32.207031 -32.773438 31.78125 -32.203125 L 15.140625 -9.171875 Z M 28.5 -9.171875 "/></g></g></g><g fill="#300452" fill-opacity="1"><g transform="translate(137.549975, 86.141095)"><g><path d="M 20.5 -25.28125 C 20.71875 -27.28125 22.132812 -28.28125 24.75 -28.28125 C 26.132812 -28.28125 27.164062 -28.171875 27.84375 -27.953125 C 28.53125 -27.742188 29.007812 -27.367188 29.28125 -26.828125 C 29.550781 -26.296875 29.710938 -25.820312 29.765625 -25.40625 C 29.816406 -25 29.84375 -24.382812 29.84375 -23.5625 L 29.84375 -4.78125 C 29.84375 -3.957031 29.816406 -3.335938 29.765625 -2.921875 C 29.710938 -2.515625 29.5625 -2.039062 29.3125 -1.5 C 28.800781 -0.570312 27.570312 -0.109375 25.625 -0.109375 C 23.675781 -0.109375 22.367188 -0.347656 21.703125 -0.828125 C 21.046875 -1.316406 20.664062 -2.023438 20.5625 -2.953125 C 19.238281 -1.054688 17.023438 -0.109375 13.921875 -0.109375 C 10.828125 -0.109375 7.957031 -1.519531 5.3125 -4.34375 C 2.664062 -7.175781 1.34375 -10.460938 1.34375 -14.203125 C 1.34375 -17.941406 2.675781 -21.210938 5.34375 -24.015625 C 8.007812 -26.828125 10.929688 -28.234375 14.109375 -28.234375 C 15.328125 -28.234375 16.4375 -28.015625 17.4375 -27.578125 C 18.445312 -27.148438 19.144531 -26.75 19.53125 -26.375 C 19.925781 -26 20.25 -25.632812 20.5 -25.28125 Z M 10.734375 -14.109375 C 10.734375 -12.929688 11.195312 -11.867188 12.125 -10.921875 C 13.0625 -9.972656 14.191406 -9.5 15.515625 -9.5 C 16.835938 -9.5 17.9375 -9.976562 18.8125 -10.9375 C 19.6875 -11.90625 20.125 -12.972656 20.125 -14.140625 C 20.125 -15.304688 19.703125 -16.390625 18.859375 -17.390625 C 18.023438 -18.390625 16.898438 -18.890625 15.484375 -18.890625 C 14.066406 -18.890625 12.921875 -18.390625 12.046875 -17.390625 C 11.171875 -16.390625 10.734375 -15.296875 10.734375 -14.109375 Z M 10.734375 -14.109375 "/></g></g></g><g fill="#300452" fill-opacity="1"><g transform="translate(169.51695, 86.141095)"><g><path d="M 2.140625 7.671875 L 2.140625 -23.671875 C 2.140625 -24.492188 2.164062 -25.097656 2.21875 -25.484375 C 2.28125 -25.878906 2.4375 -26.328125 2.6875 -26.828125 C 3.1875 -27.796875 4.382812 -28.28125 6.28125 -28.28125 C 8.175781 -28.28125 9.453125 -28.035156 10.109375 -27.546875 C 10.773438 -27.066406 11.160156 -26.363281 11.265625 -25.4375 C 12.628906 -27.300781 14.769531 -28.234375 17.6875 -28.234375 C 20.601562 -28.234375 23.363281 -26.851562 25.96875 -24.09375 C 28.582031 -21.34375 29.890625 -18.140625 29.890625 -14.484375 C 29.890625 -10.835938 28.59375 -7.632812 26 -4.875 C 23.40625 -2.125 20.640625 -0.75 17.703125 -0.75 C 14.773438 -0.75 12.648438 -1.570312 11.328125 -3.21875 L 11.328125 7.625 C 11.328125 8.445312 11.296875 9.050781 11.234375 9.4375 C 11.179688 9.832031 11.019531 10.289062 10.75 10.8125 C 10.488281 11.332031 10.035156 11.695312 9.390625 11.90625 C 8.742188 12.125 7.863281 12.234375 6.75 12.234375 C 5.644531 12.234375 4.757812 12.125 4.09375 11.90625 C 3.4375 11.695312 2.972656 11.34375 2.703125 10.84375 C 2.441406 10.34375 2.28125 9.894531 2.21875 9.5 C 2.164062 9.101562 2.140625 8.492188 2.140625 7.671875 Z M 12.78125 -17.59375 C 11.957031 -16.632812 11.546875 -15.582031 11.546875 -14.4375 C 11.546875 -13.289062 11.960938 -12.242188 12.796875 -11.296875 C 13.640625 -10.347656 14.710938 -9.875 16.015625 -9.875 C 17.328125 -9.875 18.4375 -10.335938 19.34375 -11.265625 C 20.257812 -12.203125 20.71875 -13.257812 20.71875 -14.4375 C 20.71875 -15.613281 20.285156 -16.675781 19.421875 -17.625 C 18.566406 -18.570312 17.453125 -19.046875 16.078125 -19.046875 C 14.703125 -19.046875 13.601562 -18.5625 12.78125 -17.59375 Z M 12.78125 -17.59375 "/></g></g></g><g fill="#300452" fill-opacity="1"><g transform="translate(200.733022, 86.141095)"><g><path d="M 20.5 -25.28125 C 20.71875 -27.28125 22.132812 -28.28125 24.75 -28.28125 C 26.132812 -28.28125 27.164062 -28.171875 27.84375 -27.953125 C 28.53125 -27.742188 29.007812 -27.367188 29.28125 -26.828125 C 29.550781 -26.296875 29.710938 -25.820312 29.765625 -25.40625 C 29.816406 -25 29.84375 -24.382812 29.84375 -23.5625 L 29.84375 -4.78125 C 29.84375 -3.957031 29.816406 -3.335938 29.765625 -2.921875 C 29.710938 -2.515625 29.5625 -2.039062 29.3125 -1.5 C 28.800781 -0.570312 27.570312 -0.109375 25.625 -0.109375 C 23.675781 -0.109375 22.367188 -0.347656 21.703125 -0.828125 C 21.046875 -1.316406 20.664062 -2.023438 20.5625 -2.953125 C 19.238281 -1.054688 17.023438 -0.109375 13.921875 -0.109375 C 10.828125 -0.109375 7.957031 -1.519531 5.3125 -4.34375 C 2.664062 -7.175781 1.34375 -10.460938 1.34375 -14.203125 C 1.34375 -17.941406 2.675781 -21.210938 5.34375 -24.015625 C 8.007812 -26.828125 10.929688 -28.234375 14.109375 -28.234375 C 15.328125 -28.234375 16.4375 -28.015625 17.4375 -27.578125 C 18.445312 -27.148438 19.144531 -26.75 19.53125 -26.375 C 19.925781 -26 20.25 -25.632812 20.5 -25.28125 Z M 10.734375 -14.109375 C 10.734375 -12.929688 11.195312 -11.867188 12.125 -10.921875 C 13.0625 -9.972656 14.191406 -9.5 15.515625 -9.5 C 16.835938 -9.5 17.9375 -9.976562 18.8125 -10.9375 C 19.6875 -11.90625 20.125 -12.972656 20.125 -14.140625 C 20.125 -15.304688 19.703125 -16.390625 18.859375 -17.390625 C 18.023438 -18.390625 16.898438 -18.890625 15.484375 -18.890625 C 14.066406 -18.890625 12.921875 -18.390625 12.046875 -17.390625 C 11.171875 -16.390625 10.734375 -15.296875 10.734375 -14.109375 Z M 10.734375 -14.109375 "/></g></g></g><g fill="#300452" fill-opacity="1"><g transform="translate(232.699996, 86.141095)"><g><path d="M 18.578125 -18.78125 L 15.078125 -19 L 15.078125 -11.59375 C 15.078125 -10.625 15.226562 -9.925781 15.53125 -9.5 C 15.84375 -9.070312 16.414062 -8.859375 17.25 -8.859375 C 18.09375 -8.859375 18.738281 -8.828125 19.1875 -8.765625 C 19.632812 -8.710938 20.109375 -8.546875 20.609375 -8.265625 C 21.429688 -7.796875 21.84375 -6.597656 21.84375 -4.671875 C 21.84375 -2.410156 21.34375 -1.03125 20.34375 -0.53125 C 19.800781 -0.28125 19.320312 -0.128906 18.90625 -0.078125 C 18.5 -0.0234375 17.90625 0 17.125 0 C 13.40625 0 10.578125 -0.835938 8.640625 -2.515625 C 6.710938 -4.203125 5.75 -7.050781 5.75 -11.0625 L 5.75 -19 C 5.0625 -18.894531 4.320312 -18.84375 3.53125 -18.84375 C 2.75 -18.84375 2.097656 -19.144531 1.578125 -19.75 C 1.066406 -20.351562 0.8125 -21.390625 0.8125 -22.859375 C 0.8125 -24.328125 0.898438 -25.390625 1.078125 -26.046875 C 1.253906 -26.710938 1.503906 -27.191406 1.828125 -27.484375 C 2.398438 -27.941406 3.113281 -28.171875 3.96875 -28.171875 L 5.75 -27.96875 L 5.75 -33.484375 C 5.75 -34.304688 5.773438 -34.914062 5.828125 -35.3125 C 5.878906 -35.707031 6.046875 -36.140625 6.328125 -36.609375 C 6.796875 -37.503906 8.175781 -37.953125 10.46875 -37.953125 C 12.894531 -37.953125 14.34375 -37.285156 14.8125 -35.953125 C 14.988281 -35.378906 15.078125 -34.46875 15.078125 -33.21875 L 15.078125 -27.96875 C 16.648438 -28.101562 17.835938 -28.171875 18.640625 -28.171875 C 19.453125 -28.171875 20.0625 -28.144531 20.46875 -28.09375 C 20.882812 -28.039062 21.359375 -27.875 21.890625 -27.59375 C 22.828125 -27.125 23.296875 -25.742188 23.296875 -23.453125 C 23.296875 -21.203125 22.8125 -19.828125 21.84375 -19.328125 C 21.3125 -19.078125 20.835938 -18.921875 20.421875 -18.859375 C 20.015625 -18.804688 19.398438 -18.78125 18.578125 -18.78125 Z M 18.578125 -18.78125 "/></g></g></g><g fill="#300452" fill-opacity="1"><g transform="translate(256.782489, 86.141095)"><g><path d="M 1.34375 -14.109375 C 1.34375 -18.410156 2.84375 -21.953125 5.84375 -24.734375 C 8.851562 -27.523438 12.289062 -28.921875 16.15625 -28.921875 C 20.019531 -28.921875 23.4375 -27.535156 26.40625 -24.765625 C 29.375 -21.992188 30.859375 -18.460938 30.859375 -14.171875 C 30.859375 -11.203125 30.085938 -8.5625 28.546875 -6.25 C 27.015625 -3.945312 25.144531 -2.25 22.9375 -1.15625 C 20.738281 -0.0625 18.457031 0.484375 16.09375 0.484375 C 13.738281 0.484375 11.453125 -0.09375 9.234375 -1.25 C 7.015625 -2.414062 5.144531 -4.132812 3.625 -6.40625 C 2.101562 -8.6875 1.34375 -11.253906 1.34375 -14.109375 Z M 12.5625 -10.28125 C 13.707031 -9.40625 14.867188 -8.96875 16.046875 -8.96875 C 17.222656 -8.96875 18.398438 -9.410156 19.578125 -10.296875 C 20.765625 -11.191406 21.359375 -12.515625 21.359375 -14.265625 C 21.359375 -16.023438 20.800781 -17.332031 19.6875 -18.1875 C 18.582031 -19.050781 17.382812 -19.484375 16.09375 -19.484375 C 14.8125 -19.484375 13.613281 -19.035156 12.5 -18.140625 C 11.394531 -17.242188 10.84375 -15.925781 10.84375 -14.1875 C 10.84375 -12.457031 11.414062 -11.15625 12.5625 -10.28125 Z M 12.5625 -10.28125 "/></g></g></g><g fill="#300452" fill-opacity="1"><g transform="translate(288.963986, 86.141095)"><g><path d="M 24.84375 -36.546875 L 39.34375 -6.609375 C 39.945312 -5.390625 40.25 -4.472656 40.25 -3.859375 C 40.25 -2.578125 39.210938 -1.414062 37.140625 -0.375 C 35.921875 0.226562 34.960938 0.53125 34.265625 0.53125 C 33.566406 0.53125 32.992188 0.367188 32.546875 0.046875 C 32.097656 -0.265625 31.773438 -0.597656 31.578125 -0.953125 C 31.390625 -1.316406 31.113281 -1.859375 30.75 -2.578125 L 27.96875 -8.375 L 13.09375 -8.375 L 10.3125 -2.578125 C 9.945312 -1.859375 9.664062 -1.335938 9.46875 -1.015625 C 9.269531 -0.691406 8.945312 -0.359375 8.5 -0.015625 C 8.0625 0.316406 7.492188 0.484375 6.796875 0.484375 C 6.097656 0.484375 5.140625 0.179688 3.921875 -0.421875 C 1.847656 -1.429688 0.8125 -2.578125 0.8125 -3.859375 C 0.8125 -4.472656 1.113281 -5.390625 1.71875 -6.609375 L 16.203125 -36.609375 C 16.597656 -37.429688 17.195312 -38.09375 18 -38.59375 C 18.8125 -39.09375 19.664062 -39.34375 20.5625 -39.34375 C 22.488281 -39.34375 23.914062 -38.410156 24.84375 -36.546875 Z M 20.5 -23.671875 L 16.953125 -16.3125 L 24.09375 -16.3125 Z M 20.5 -23.671875 "/></g></g></g><g fill="#300452" fill-opacity="1"><g transform="translate(329.995427, 86.141095)"><g><path d="M 2.140625 -36.875 C 2.140625 -37.695312 2.164062 -38.3125 2.21875 -38.71875 C 2.28125 -39.132812 2.4375 -39.609375 2.6875 -40.140625 C 3.1875 -41.109375 4.582031 -41.59375 6.875 -41.59375 C 9.050781 -41.59375 10.410156 -41.109375 10.953125 -40.140625 C 11.234375 -39.609375 11.398438 -39.125 11.453125 -38.6875 C 11.515625 -38.257812 11.546875 -37.632812 11.546875 -36.8125 L 11.546875 -11.96875 C 11.546875 -10.675781 11.648438 -9.859375 11.859375 -9.515625 C 12.078125 -9.179688 12.550781 -9.015625 13.28125 -9.015625 C 14.019531 -9.015625 14.515625 -8.988281 14.765625 -8.9375 C 15.015625 -8.882812 15.316406 -8.734375 15.671875 -8.484375 C 16.390625 -8.015625 16.75 -6.742188 16.75 -4.671875 C 16.75 -2.410156 16.390625 -1.03125 15.671875 -0.53125 C 14.742188 0.101562 12.523438 0.207031 9.015625 -0.21875 C 6.265625 -0.570312 4.476562 -1.484375 3.65625 -2.953125 C 2.644531 -4.703125 2.140625 -7.492188 2.140625 -11.328125 Z M 2.140625 -36.875 "/></g></g></g><g fill="#300452" fill-opacity="1"><g transform="translate(347.534351, 86.141095)"><g><path d="M 18.578125 -18.78125 L 15.078125 -19 L 15.078125 -11.59375 C 15.078125 -10.625 15.226562 -9.925781 15.53125 -9.5 C 15.84375 -9.070312 16.414062 -8.859375 17.25 -8.859375 C 18.09375 -8.859375 18.738281 -8.828125 19.1875 -8.765625 C 19.632812 -8.710938 20.109375 -8.546875 20.609375 -8.265625 C 21.429688 -7.796875 21.84375 -6.597656 21.84375 -4.671875 C 21.84375 -2.410156 21.34375 -1.03125 20.34375 -0.53125 C 19.800781 -0.28125 19.320312 -0.128906 18.90625 -0.078125 C 18.5 -0.0234375 17.90625 0 17.125 0 C 13.40625 0 10.578125 -0.835938 8.640625 -2.515625 C 6.710938 -4.203125 5.75 -7.050781 5.75 -11.0625 L 5.75 -19 C 5.0625 -18.894531 4.320312 -18.84375 3.53125 -18.84375 C 2.75 -18.84375 2.097656 -19.144531 1.578125 -19.75 C 1.066406 -20.351562 0.8125 -21.390625 0.8125 -22.859375 C 0.8125 -24.328125 0.898438 -25.390625 1.078125 -26.046875 C 1.253906 -26.710938 1.503906 -27.191406 1.828125 -27.484375 C 2.398438 -27.941406 3.113281 -28.171875 3.96875 -28.171875 L 5.75 -27.96875 L 5.75 -33.484375 C 5.75 -34.304688 5.773438 -34.914062 5.828125 -35.3125 C 5.878906 -35.707031 6.046875 -36.140625 6.328125 -36.609375 C 6.796875 -37.503906 8.175781 -37.953125 10.46875 -37.953125 C 12.894531 -37.953125 14.34375 -37.285156 14.8125 -35.953125 C 14.988281 -35.378906 15.078125 -34.46875 15.078125 -33.21875 L 15.078125 -27.96875 C 16.648438 -28.101562 17.835938 -28.171875 18.640625 -28.171875 C 19.453125 -28.171875 20.0625 -28.144531 20.46875 -28.09375 C 20.882812 -28.039062 21.359375 -27.875 21.890625 -27.59375 C 22.828125 -27.125 23.296875 -25.742188 23.296875 -23.453125 C 23.296875 -21.203125 22.8125 -19.828125 21.84375 -19.328125 C 21.3125 -19.078125 20.835938 -18.921875 20.421875 -18.859375 C 20.015625 -18.804688 19.398438 -18.78125 18.578125 -18.78125 Z M 18.578125 -18.78125 "/></g></g></g><g fill="#300452" fill-opacity="1"><g transform="translate(371.616844, 86.141095)"><g><path d="M 1.34375 -14.109375 C 1.34375 -18.410156 2.84375 -21.953125 5.84375 -24.734375 C 8.851562 -27.523438 12.289062 -28.921875 16.15625 -28.921875 C 20.019531 -28.921875 23.4375 -27.535156 26.40625 -24.765625 C 29.375 -21.992188 30.859375 -18.460938 30.859375 -14.171875 C 30.859375 -11.203125 30.085938 -8.5625 28.546875 -6.25 C 27.015625 -3.945312 25.144531 -2.25 22.9375 -1.15625 C 20.738281 -0.0625 18.457031 0.484375 16.09375 0.484375 C 13.738281 0.484375 11.453125 -0.09375 9.234375 -1.25 C 7.015625 -2.414062 5.144531 -4.132812 3.625 -6.40625 C 2.101562 -8.6875 1.34375 -11.253906 1.34375 -14.109375 Z M 12.5625 -10.28125 C 13.707031 -9.40625 14.867188 -8.96875 16.046875 -8.96875 C 17.222656 -8.96875 18.398438 -9.410156 19.578125 -10.296875 C 20.765625 -11.191406 21.359375 -12.515625 21.359375 -14.265625 C 21.359375 -16.023438 20.800781 -17.332031 19.6875 -18.1875 C 18.582031 -19.050781 17.382812 -19.484375 16.09375 -19.484375 C 14.8125 -19.484375 13.613281 -19.035156 12.5 -18.140625 C 11.394531 -17.242188 10.84375 -15.925781 10.84375 -14.1875 C 10.84375 -12.457031 11.414062 -11.15625 12.5625 -10.28125 Z M 12.5625 -10.28125 "/></g></g></g><g clip-path="url(#id2)"><path fill="#ea0e68" d="M 57.554688 6.933594 C 70.640625 6.933594 81.386719 23.234375 82.257812 43.789062 C 83.4375 44.199219 84.25 45.390625 84.070312 46.742188 C 83.90625 47.96875 82.902344 48.945312 81.671875 49.085938 C 80.011719 49.273438 78.605469 47.984375 78.605469 46.367188 C 78.605469 45.265625 79.261719 44.320312 80.199219 43.886719 C 80.070312 40.609375 79.695312 37.4375 79.09375 34.425781 L 33.96875 34.425781 C 37.167969 18.496094 46.53125 6.933594 57.554688 6.933594 Z M 32.4375 81.472656 C 32.4375 81.472656 31.464844 71.640625 30.316406 68.683594 C 29.328125 66.148438 31.855469 58.523438 34.742188 55.566406 C 35.441406 54.851562 36.59375 54.847656 37.320312 55.535156 C 42.847656 60.746094 55.4375 75.472656 56.667969 77.195312 C 57.996094 79.050781 65.160156 88.753906 68.695312 89.679688 C 71.828125 90.496094 74.335938 90.453125 77.660156 89.394531 C 78.671875 89.070312 79.761719 89.085938 80.769531 89.421875 C 84.625 90.714844 92.925781 94.121094 94.34375 94.882812 C 94.347656 94.882812 94.347656 94.886719 94.351562 94.886719 C 94.738281 95.09375 95.199219 94.746094 95.082031 94.320312 C 95.082031 94.308594 95.078125 94.296875 95.074219 94.28125 C 87.84375 69.070312 93.40625 44.6875 95.566406 36.953125 C 95.921875 35.679688 94.964844 34.425781 93.644531 34.425781 L 83.378906 34.425781 C 82.132812 27.980469 79.886719 22.066406 76.761719 17.15625 C 71.671875 9.15625 64.847656 4.746094 57.554688 4.746094 C 50.257812 4.746094 43.4375 9.15625 38.34375 17.15625 C 33.75 24.375 31.058594 33.761719 30.65625 43.828125 C 31.777344 44.277344 32.535156 45.441406 32.351562 46.757812 C 32.183594 47.976562 31.179688 48.949219 29.949219 49.085938 C 28.296875 49.269531 26.894531 47.984375 26.894531 46.367188 C 26.894531 45.226562 27.597656 44.246094 28.59375 43.835938 C 28.71875 40.617188 29.074219 37.460938 29.660156 34.425781 L 17.34375 34.425781 C 16.023438 34.425781 15.066406 35.679688 15.421875 36.953125 C 17.582031 44.6875 23.144531 69.070312 15.910156 94.28125 C 15.328125 96.324219 17.257812 98.273438 19.859375 98.273438 L 31.324219 98.273438 C 31.941406 98.273438 32.4375 97.777344 32.4375 97.164062 L 32.4375 81.472656 " fill-opacity="1" fill-rule="nonzero"/></g><path fill="#ea0e68" d="M 55.941406 95.433594 C 53.492188 92.339844 51.429688 88.015625 50.664062 86.777344 C 49.480469 84.863281 47.316406 81.242188 43.890625 79.492188 C 40.464844 77.742188 38.421875 78.515625 37.199219 79.453125 C 35.976562 80.390625 36.058594 82.464844 36.058594 84.417969 L 36.058594 96.207031 C 36.058594 96.773438 36.515625 97.230469 37.082031 97.230469 L 54.699219 97.230469 C 55.71875 97.230469 56.289062 97.230469 56.289062 97.230469 C 56.804688 97.230469 57.050781 96.613281 56.683594 96.253906 C 56.417969 96 56.171875 95.726562 55.941406 95.433594 " fill-opacity="1" fill-rule="nonzero"/></svg>